<svg width="207" height="57" viewBox="0 0 207 57" fill="none" xmlns="http://www.w3.org/2000/svg">
<path d="M180.339 45.3368L106.045 38.9384L101.933 11.01L144.042 0L145.445 4.22723L147.405 10.8851L197.44 9.32871L206.422 38.8519L180.339 45.3368ZM106.843 38.0833L180.262 44.4145L205.26 38.1794L196.758 10.251L146.723 11.8074L144.571 4.49624L143.447 1.09525L102.961 11.6825L106.843 38.0833Z" fill="white"/>
<path d="M101.722 57L82.0463 47.7769L9.28065 40.1199L0 16.313L8.25267 11.25L8.36795 11.2404L90.0972 6.86908L101.732 36.5172V57H101.722ZM9.92433 39.2649L82.2961 46.8739L82.3634 46.9027L100.809 55.5492V36.6037L89.4824 7.82019L8.52167 12.1531L1.12404 16.6877L9.92433 39.2649Z" fill="white"/>
<path d="M29.9076 28.966C29.9076 30.2918 29.3407 31.4159 28.2071 32.3286C27.0734 33.2509 25.7092 33.712 24.1144 33.712H20.8095C20.1177 33.712 19.5413 33.4622 19.0513 32.9722C18.5709 32.4823 18.3212 31.8866 18.3212 31.1949V17.5141H24.1144C25.6996 17.5141 27.0638 17.9753 28.2071 18.8976C29.3407 19.8199 29.9076 20.9439 29.9076 22.2601V28.966ZM24.1144 32.0403C25.2768 32.0403 26.2568 31.7329 27.0542 31.1277C27.8516 30.5224 28.2551 29.8018 28.2551 28.966V22.2601C28.2551 21.4243 27.8516 20.7037 27.0542 20.0985C26.2568 19.4932 25.2768 19.1858 24.1144 19.1858H19.9736V31.1949C19.9736 31.4255 20.0505 31.6272 20.2138 31.7906C20.3771 31.9539 20.5693 32.0403 20.7998 32.0403H24.1144Z" fill="white"/>
<path d="M51.5815 31.2045C51.5815 31.8962 51.3413 32.4918 50.8513 32.9818C50.3709 33.4718 49.7849 33.7216 49.1028 33.7216H45.7979C44.2127 33.7216 42.8484 33.2604 41.7148 32.3381C40.5811 31.4254 40.0143 30.2918 40.0143 28.9756V22.2697C40.0143 20.9439 40.5811 19.8198 41.7148 18.9071C42.8484 17.9848 44.2127 17.5237 45.7979 17.5237C47.3927 17.5237 48.7473 17.9848 49.8906 18.9071C51.0242 19.8294 51.5911 21.0399 51.5911 22.5579H49.9386C49.9386 21.5395 49.5351 20.7229 48.7473 20.1176C47.9499 19.5124 46.97 19.205 45.8075 19.205C44.645 19.205 43.6651 19.5124 42.8677 20.1176C42.0702 20.7229 41.6667 21.4434 41.6667 22.2793V28.9852C41.6667 29.821 42.0606 30.5416 42.8677 31.1468C43.6651 31.7521 44.645 32.0595 45.8075 32.0595H49.1124C49.343 32.0595 49.5351 31.9731 49.6985 31.8097C49.8618 31.6464 49.9386 31.4447 49.9386 31.2141V26.4681H45.6057V24.7964H51.5911V31.2045H51.5815Z" fill="white"/>
<path d="M64.8204 19.1954H59.863V17.5141H71.4398V19.1954H66.4825V33.712H64.8204V19.1954Z" fill="white"/>
<path d="M81.2682 17.5141H82.9206V31.1949C82.9206 31.4255 83.0071 31.6272 83.1608 31.7906C83.3241 31.9539 83.5163 32.0403 83.7468 32.0403H92.8449V33.712H83.7468C83.0647 33.712 82.4787 33.4622 81.9887 32.9722C81.5083 32.4823 81.2585 31.8866 81.2585 31.1949V17.5141H81.2682Z" fill="white"/>
<path d="M120.408 26.4106H115.97V33.1069H114.317V16.9089H120.11C121.696 16.9089 123.06 17.3701 124.194 18.2924C125.327 19.2147 125.904 20.3291 125.904 21.6549C125.904 22.9808 125.337 24.1048 124.194 25.0367C123.483 25.6035 122.81 25.9686 122.166 26.1223L126.105 33.1069H124.203L120.408 26.4106ZM120.11 24.7293C121.273 24.7293 122.243 24.4218 123.05 23.8166C123.848 23.2113 124.251 22.4908 124.251 21.6549C124.251 20.8191 123.857 20.0986 123.05 19.4933C122.253 18.888 121.273 18.5806 120.11 18.5806H115.97V24.7197H120.11V24.7293Z" fill="white"/>
<path d="M136.885 16.9088H138.537V30.5896C138.537 30.8202 138.624 31.0219 138.787 31.1853C138.95 31.3486 139.142 31.4255 139.373 31.4255H148.471V33.0971H139.373C138.681 33.0971 138.105 32.8473 137.615 32.3574C137.135 31.8674 136.885 31.2717 136.885 30.58V16.9088Z" fill="white"/>
<path d="M167.494 30.5896C167.494 31.2814 167.253 31.877 166.763 32.367C166.274 32.8569 165.697 33.1067 165.015 33.1067H161.71C160.115 33.1067 158.761 32.6456 157.617 31.7233C156.484 30.801 155.917 29.6769 155.917 28.3511V21.6548C155.917 20.329 156.484 19.205 157.617 18.2827C158.751 17.3604 160.115 16.8992 161.71 16.8992C163.295 16.8992 164.66 17.3604 165.793 18.2827C166.927 19.205 167.494 20.4155 167.494 21.9334H165.841C165.841 20.9151 165.447 20.0984 164.64 19.4932C163.843 18.8879 162.863 18.5805 161.7 18.5805C160.538 18.5805 159.558 18.8783 158.761 19.4932C157.963 20.0984 157.569 20.819 157.569 21.6548V28.3511C157.569 29.1869 157.973 29.9075 158.761 30.5128C159.558 31.118 160.538 31.4255 161.7 31.4255H165.005C165.236 31.4255 165.428 31.3486 165.591 31.1853C165.755 31.022 165.832 30.8202 165.832 30.5896V25.8436H161.364V24.1719H167.484V30.5896H167.494Z" fill="white"/>
<path d="M187.448 32.0979L179.906 19.8871V33.0971H178.254V18.1578C178.254 17.3219 178.561 16.9088 179.176 16.9088C179.714 16.9088 180.185 17.2451 180.598 17.9176L188.178 30.1285V16.9088H189.831V31.8386C189.831 32.684 189.514 33.1067 188.899 33.1067C188.341 33.1067 187.861 32.7705 187.448 32.0979Z" fill="white"/>
</svg>
