<svg width="156" height="42" viewBox="0 0 156 42" fill="none" xmlns="http://www.w3.org/2000/svg">
<path d="M17.9117 14.0534H14.7644V23.0862C14.7644 23.2696 14.8338 23.4072 14.9495 23.5218C15.0652 23.6364 15.2272 23.7052 15.3892 23.7052H17.9117C18.7911 23.7052 19.5316 23.4759 20.1565 23.0174C20.7581 22.5589 21.059 22.0087 21.059 21.3897V16.346C21.059 15.727 20.7581 15.1768 20.1565 14.7183C19.5316 14.2827 18.7911 14.0534 17.9117 14.0534Z" fill="white"/>
<path d="M67.806 5.13535L5.9475 8.41372L0 12.036L6.87317 29.5055L62.0205 35.2598L76.5305 42V27.1212L67.806 5.13535ZM22.3089 21.4127C22.3089 22.3985 21.8692 23.2467 21.013 23.9574C20.1567 24.6452 19.1152 24.9891 17.9119 24.9891H15.3894C14.8571 24.9891 14.4175 24.8056 14.0472 24.4388C13.6769 24.072 13.4918 23.6135 13.4918 23.1092V12.8155H17.8888C19.0922 12.8155 20.1335 13.1593 20.9898 13.8471C21.846 14.5349 22.2857 15.3832 22.2857 16.3919V21.4127H22.3089ZM32.1442 23.0404C32.7459 23.4989 33.4865 23.7281 34.3658 23.7281H36.8883C37.0735 23.7281 37.2123 23.6594 37.328 23.5448C37.4437 23.4301 37.5131 23.2696 37.5131 23.1092V19.5327H34.227V18.2718H38.7628V23.1092C38.7628 23.6365 38.5777 24.072 38.2074 24.4388C37.8372 24.8056 37.3974 24.9891 36.8652 24.9891H34.3427C33.1393 24.9891 32.0979 24.6452 31.2417 23.9574C30.3854 23.2696 29.9457 22.4214 29.9457 21.4127V16.369C29.9457 15.3832 30.3854 14.5349 31.2417 13.8242C32.0979 13.1365 33.1393 12.7926 34.3427 12.7926C35.5461 12.7926 36.5874 13.1365 37.4437 13.8242C38.3 14.512 38.7396 15.429 38.7396 16.5753H37.49C37.49 15.8187 37.1891 15.1998 36.5875 14.7413C35.9858 14.2827 35.2452 14.0534 34.3427 14.0534C33.4633 14.0534 32.7228 14.2827 32.1211 14.7413C31.5194 15.1998 31.2185 15.75 31.2185 16.369V21.4127C31.2416 22.0317 31.5425 22.5819 32.1442 23.0404ZM53.8745 14.0534H50.1024V24.9891H48.8527V14.0534H45.0806V12.7926H53.8745V14.0534ZM70.1433 24.9891H63.2239C62.7148 24.9891 62.2519 24.8056 61.8816 24.4388C61.5113 24.072 61.3262 23.6135 61.3262 23.1092V12.8155H62.5759V23.1092C62.5759 23.2926 62.6453 23.4301 62.761 23.5448C62.8767 23.6594 63.0387 23.7281 63.2007 23.7281H70.1202V24.9891H70.1433Z" fill="white"/>
<path d="M94.003 15.9104C94.003 15.2914 93.7022 14.7412 93.1005 14.2827C92.4988 13.8242 91.7583 13.595 90.8789 13.595H87.7316V18.226H90.8789C91.7583 18.226 92.4988 17.9967 93.1005 17.5382C93.7022 17.0797 94.003 16.5294 94.003 15.9104Z" fill="white"/>
<path d="M149.358 6.96939L111.336 8.13863L109.786 2.8886L108.814 0L77.4331 8.13863L80.4648 28.5885L136.584 33.3799L156 28.5885L149.358 6.96939ZM93.9565 24.5306L91.0638 19.4869H87.6851V24.5306H86.4354V12.334H90.8323C92.0357 12.334 93.0771 12.6779 93.9333 13.3657C94.7896 14.0535 95.2293 14.9017 95.2293 15.9104C95.2293 16.8962 94.7896 17.7675 93.9333 18.4552C93.4011 18.8908 92.8689 19.143 92.3829 19.2805L95.3681 24.5306H93.9565ZM112.401 24.5306H105.481C104.949 24.5306 104.509 24.3472 104.139 23.9804C103.769 23.6135 103.584 23.155 103.584 22.6506V12.357H104.833V22.6506C104.833 22.834 104.903 22.9716 105.018 23.1092C105.134 23.2238 105.296 23.2925 105.458 23.2925H112.378V24.5306H112.401ZM120.223 22.5818C120.824 23.0404 121.565 23.2697 122.467 23.2697H124.99C125.152 23.2697 125.314 23.2008 125.43 23.0862C125.545 22.9716 125.615 22.8112 125.615 22.6277V19.0513H122.213V17.7904H126.864V22.6277C126.864 23.155 126.679 23.5906 126.309 23.9574C125.939 24.3242 125.499 24.5076 124.967 24.5076H122.444C121.241 24.5076 120.2 24.1638 119.343 23.476C118.487 22.7882 118.047 21.9399 118.047 20.9312V15.8876C118.047 14.8788 118.487 14.0535 119.343 13.3428C120.2 12.655 121.241 12.3111 122.444 12.3111C123.648 12.3111 124.689 12.655 125.545 13.3428C126.402 14.0305 126.841 14.9476 126.841 16.0939H125.592C125.592 15.3144 125.291 14.7184 124.689 14.2598C124.087 13.8013 123.347 13.572 122.467 13.572C121.588 13.572 120.848 13.8013 120.223 14.2598C119.621 14.7184 119.32 15.2686 119.32 15.8876V20.9312C119.32 21.5731 119.621 22.1233 120.223 22.5818ZM143.827 23.5677C143.827 24.2096 143.596 24.5076 143.11 24.5076C142.693 24.5076 142.323 24.2555 141.999 23.7511L136.26 14.5578V24.5076H135.01V13.2511C135.01 12.6321 135.242 12.3111 135.705 12.3111C136.121 12.3111 136.468 12.5633 136.792 13.0677L142.555 22.2609V12.3111H143.804V23.5677H143.827Z" fill="white"/>
</svg>
